<svg width="22" height="22" viewBox="0 0 22 22" fill="none" xmlns="http://www.w3.org/2000/svg">
<g clip-path="url(#clip0)">
<path d="M17.4707 10.9999C17.4707 11.2589 17.393 11.5177 17.2506 11.7118L10.7802 21.4176C10.5472 21.7672 10.1589 22.0001 9.70604 22.0001L5.82369 22.0001C5.11186 22.0001 4.52942 21.4176 4.52942 20.7058C4.52942 20.447 4.60714 20.1883 4.74955 19.9942L10.7413 10.9999L4.74955 2.00587C4.60714 1.8118 4.52942 1.55304 4.52942 1.29404C4.52942 0.582448 5.11187 1.01838e-07 5.82369 2.26298e-07L9.70604 9.05109e-07C10.1589 9.84285e-07 10.5472 0.232933 10.7802 0.582449L17.2506 10.2883C17.393 10.4824 17.4707 10.7412 17.4707 10.9999V10.9999Z" fill="white"/>
</g>
<defs>
<clipPath id="clip0">
<rect width="22" height="22" fill="white"/>
</clipPath>
</defs>
</svg>
