<svg width="22" height="22" viewBox="0 0 22 22" fill="none" xmlns="http://www.w3.org/2000/svg">
<g clip-path="url(#clip0)">
<path d="M4.52926 11.0001C4.52926 10.7411 4.60699 10.4823 4.7494 10.2882L11.2198 0.582362C11.4528 0.232846 11.8411 -8.5965e-05 12.294 -8.60046e-05L16.1763 -8.6344e-05C16.8881 -8.64062e-05 17.4706 0.582361 17.4706 1.29419C17.4706 1.55295 17.3929 1.81171 17.2504 2.00578L11.2587 11.0001L17.2504 19.9941C17.3929 20.1882 17.4706 20.447 17.4706 20.706C17.4706 21.4176 16.8881 22 16.1763 22L12.294 22C11.8411 22 11.4528 21.7671 11.2198 21.4176L4.7494 11.7117C4.60699 11.5176 4.52926 11.2588 4.52926 11.0001V11.0001Z" fill="white"/>
</g>
<defs>
<clipPath id="clip0">
<rect width="22" height="22" fill="white" transform="translate(22 22) rotate(180)"/>
</clipPath>
</defs>
</svg>
