<svg width="14" height="17" viewBox="0 0 14 17" fill="none" xmlns="http://www.w3.org/2000/svg">
<path d="M13.6065 6.18094C13.6065 5.07407 13.2318 4.15599 12.5921 3.43628C12.6616 3.28055 12.7339 3.07163 12.7699 2.80905C12.8523 2.21009 12.755 1.85071 12.6726 1.49901C12.5902 1.1473 12.4929 0.900048 12.4929 0.900048C12.4929 0.900048 12.0511 0.855006 11.6769 0.982465C11.3027 1.10992 10.9807 1.20719 10.5164 1.48415C10.2993 1.61353 10.0808 1.75536 9.90781 1.87036C9.16846 1.66528 8.35531 1.55986 7.5 1.55986C6.63702 1.55986 5.81669 1.66576 5.07206 1.87228C4.89861 1.7568 4.67867 1.61401 4.46017 1.48367C3.99586 1.20672 3.67386 1.10944 3.29963 0.981986C2.9254 0.854528 2.48361 0.899569 2.48361 0.899569C2.48361 0.899569 2.38634 1.14682 2.30392 1.49853C2.2215 1.85024 2.12423 2.20961 2.20665 2.80857C2.24354 3.07786 2.31829 3.29061 2.38969 3.4473C1.76198 4.16269 1.39398 5.07503 1.39398 6.18047C1.39398 9.04732 2.94265 10.3559 5.76446 10.7014C5.43527 11.0493 5.21438 11.4949 5.14011 11.9908C4.95467 12.0723 4.74096 12.149 4.5354 12.1796C4.0064 12.2597 3.44721 12.1796 3.17792 12.0201C2.90863 11.8605 2.58902 11.5011 2.34944 11.1513C2.14723 10.8562 1.85542 10.5136 1.59092 10.3928C1.24161 10.2333 0.901878 10.1734 0.712607 10.2031C0.522857 10.2333 0.433253 10.3727 0.473024 10.4728C0.512794 10.5725 0.702544 10.7225 0.902357 10.8322C1.10217 10.9419 1.41171 11.2414 1.5914 11.5308C1.79169 11.8538 1.83098 12.0402 2.00061 12.4092C2.11992 12.6689 2.52817 12.9933 2.81902 13.1677C3.06867 13.3177 3.56748 13.4029 4.10702 13.4274C4.29342 13.436 4.73377 13.3814 5.10513 13.3287V15.1255C5.10513 15.4317 4.82481 15.6646 4.53444 15.6109C5.46642 15.9243 6.46165 16.0834 7.5 16.0834C8.53788 16.0834 9.53311 15.9243 10.466 15.6119C10.1761 15.6651 9.89583 15.4322 9.89583 15.126V12.3449C9.89583 11.7081 9.64331 11.1327 9.23794 10.7038C12.0391 10.3674 13.6065 9.08996 13.6065 6.18094ZM1.38536 10.6818C1.31157 10.6439 1.27179 10.5739 1.29671 10.5246C1.32163 10.4752 1.40213 10.4661 1.47592 10.504C1.54971 10.5418 1.58948 10.6118 1.56456 10.6612C1.53965 10.7105 1.45915 10.7196 1.38536 10.6818ZM1.96611 11.0435C1.92729 11.0857 1.84392 11.0723 1.77971 11.0138C1.7155 10.9554 1.6949 10.8734 1.73371 10.8313C1.77252 10.7891 1.8559 10.8025 1.92011 10.861C1.98431 10.9194 2.00492 11.0014 1.96611 11.0435ZM2.3274 11.6425C2.27852 11.677 2.19563 11.6449 2.14244 11.5706C2.08925 11.4963 2.0859 11.4077 2.13477 11.3732C2.18365 11.3387 2.26654 11.3708 2.31973 11.4451C2.37244 11.5193 2.37627 11.608 2.3274 11.6425ZM2.84634 12.0934C2.81327 12.147 2.71936 12.1494 2.63694 12.0991C2.55452 12.0488 2.51427 11.9645 2.54734 11.9108C2.5804 11.8572 2.67431 11.8548 2.75673 11.9051C2.83915 11.9554 2.8794 12.0397 2.84634 12.0934ZM3.337 12.5347C3.23494 12.5222 3.15923 12.4585 3.16786 12.3924C3.176 12.3263 3.26561 12.2831 3.36719 12.2956C3.46925 12.308 3.54496 12.3718 3.53634 12.4379C3.52819 12.5035 3.43906 12.5472 3.337 12.5347ZM4.12811 12.6492C4.01934 12.643 3.93452 12.5807 3.93884 12.5107C3.94315 12.4408 4.03467 12.3885 4.14344 12.3948C4.25221 12.401 4.33702 12.4633 4.33271 12.5333C4.3284 12.6037 4.23688 12.6554 4.12811 12.6492ZM4.87465 12.5745C4.75869 12.5745 4.66477 12.5141 4.66477 12.4398C4.66477 12.3655 4.75869 12.3052 4.87465 12.3052C4.99061 12.3052 5.08452 12.3655 5.08452 12.4398C5.08452 12.5141 4.99013 12.5745 4.87465 12.5745Z" fill="white"/>
</svg>
