<svg width="17" height="17" viewBox="0 0 17 17" fill="none" xmlns="http://www.w3.org/2000/svg">
<path d="M14.58 0.52002H2.42C1.3712 0.52002 0.519997 1.37122 0.519997 2.42002V14.58C0.519997 15.6288 1.3712 16.48 2.42 16.48H14.58C15.6288 16.48 16.48 15.6288 16.48 14.58V2.42002C16.48 1.37122 15.6288 0.52002 14.58 0.52002ZM5.46 6.60002V13.82H3.18V6.60002H5.46ZM3.18 4.49862C3.18 3.96662 3.636 3.56002 4.32 3.56002C5.004 3.56002 5.4334 3.96662 5.46 4.49862C5.46 5.03062 5.0344 5.46002 4.32 5.46002C3.636 5.46002 3.18 5.03062 3.18 4.49862ZM13.82 13.82H11.54C11.54 13.82 11.54 10.3012 11.54 10.02C11.54 9.26002 11.16 8.50002 10.21 8.48482H10.1796C9.26 8.48482 8.88 9.26762 8.88 10.02C8.88 10.3658 8.88 13.82 8.88 13.82H6.6V6.60002H8.88V7.57282C8.88 7.57282 9.6134 6.60002 11.0878 6.60002C12.5964 6.60002 13.82 7.63742 13.82 9.73882V13.82Z" fill="white"/>
</svg>
