<svg width="20" height="18" viewBox="0 0 20 18" fill="none" xmlns="http://www.w3.org/2000/svg">
<path d="M7.26374 0.600098C8.56827 1.5165 9.41999 3.02947 9.41999 4.7401V12.5601H18.62C18.8751 12.5601 19.08 12.3553 19.08 12.1001V4.7401C19.08 2.45807 17.2238 0.600098 14.94 0.600098H7.26374ZM4.58999 0.614473C2.41398 0.734863 0.679993 2.53533 0.679993 4.7401V12.1001C0.679993 12.3553 0.886633 12.5601 1.13999 12.5601H8.49999V4.7401C8.49999 2.53533 6.76601 0.734863 4.58999 0.614473ZM12.18 3.8201C12.5196 3.8201 12.8107 4.00697 12.9706 4.2801H17.24V7.0401H15.4V5.2001H12.9706C12.8107 5.47322 12.5196 5.6601 12.18 5.6601C11.6715 5.6601 11.26 5.24861 11.26 4.7401C11.26 4.23158 11.6715 3.8201 12.18 3.8201ZM3.43999 5.2001H5.73999C5.99335 5.2001 6.19999 5.40674 6.19999 5.6601C6.19999 5.91346 5.99335 6.1201 5.73999 6.1201H3.43999C3.18663 6.1201 2.97999 5.91346 2.97999 5.6601C2.97999 5.40674 3.18663 5.2001 3.43999 5.2001ZM9.87999 13.4801V17.1601H12.64V13.4801H9.87999Z" fill="white"/>
</svg>
