<?xml version="1.0" encoding="iso-8859-1"?>
<!-- Generator: Adobe Illustrator 19.0.0, SVG Export Plug-In . SVG Version: 6.00 Build 0)  -->
<svg version="1.1" id="Capa_1" xmlns="http://www.w3.org/2000/svg" xmlns:xlink="http://www.w3.org/1999/xlink" x="0px" y="0px"
	 viewBox="0 0 512 512" style="enable-background:new 0 0 512 512;" xml:space="preserve">
<g>
	<polygon style="fill:#D8D8E4;" points="42,399.333 42,502 10,502 10,352.5 	"/>
	<polygon style="fill:#D8D8E4;" points="470,399.333 470,502 502,502 502,352.5 	"/>
</g>
<g>
	<path style="fill:#4DBAF6;" d="M59.5,402H76v-99H59.5C32.162,303,10,325.162,10,352.5l0,0C10,379.838,32.162,402,59.5,402z"/>
	<path style="fill:#4DBAF6;" d="M452.5,402H436v-99h16.5c27.338,0,49.5,22.162,49.5,49.5l0,0C502,379.838,479.838,402,452.5,402z"/>
</g>
<path style="fill:#72D8FF;" d="M144.977,10h222.046c59.647,0,108,48.353,108,108l0,0c0,59.647-48.353,108-108,108H144.977
	c-59.647,0-108-48.353-108-108l0,0C36.977,58.353,85.331,10,144.977,10z"/>
<polyline style="fill:#D8D8E4;" points="216,303 76,303 76,502 436,502 436,303 296,303 "/>
<circle style="fill:#FFFFFF;" cx="150.33" cy="118.61" r="72"/>
<circle style="fill:#4DBAF6;" cx="150.33" cy="118.61" r="28"/>
<circle style="fill:#FFFFFF;" cx="361.67" cy="117.39" r="72"/>
<circle style="fill:#4DBAF6;" cx="361.67" cy="117.39" r="28"/>
<path style="fill:#B3B6C3;" d="M256,326L256,326c-22.091,0-40-17.909-40-40v-60h80v60C296,308.091,278.091,326,256,326z"/>
<path style="fill:#4DBAF6;" d="M389.5,502h-267v-97.417c0-20.02,16.23-36.25,36.25-36.25h194.5c20.02,0,36.25,16.23,36.25,36.25V502
	z"/>
<g>
	<circle style="fill:#FFFFFF;" cx="256" cy="428" r="20"/>
	<circle style="fill:#FFFFFF;" cx="335.7" cy="443.58" r="20"/>
	<circle style="fill:#FFFFFF;" cx="176.3" cy="443.58" r="20"/>
</g>
<path d="M357.26,218.93c-1.86,1.86-2.93,4.44-2.93,7.07s1.07,5.21,2.93,7.07s4.44,2.93,7.07,2.93c2.64,0,5.21-1.07,7.07-2.93
	c1.87-1.86,2.93-4.44,2.93-7.07s-1.06-5.21-2.93-7.07c-1.86-1.86-4.43-2.93-7.07-2.93C361.7,216,359.12,217.07,357.26,218.93z"/>
<path d="M68.326,118.611c0,45.215,36.785,82,82,82s82-36.785,82-82s-36.785-82-82-82S68.326,73.396,68.326,118.611z
	 M212.326,118.611c0,34.187-27.813,62-62,62s-62-27.813-62-62s27.813-62,62-62S212.326,84.424,212.326,118.611z"/>
<path d="M112.326,118.611c0,20.953,17.047,38,38,38s38-17.047,38-38c0-5.523-4.477-10-10-10s-10,4.477-10,10c0,9.925-8.075,18-18,18
	s-18-8.075-18-18s8.075-18,18-18c5.523,0,10-4.477,10-10s-4.477-10-10-10C129.373,80.611,112.326,97.658,112.326,118.611z"/>
<path d="M443.674,117.389c0-45.215-36.785-82-82-82s-82,36.785-82,82s36.785,82,82,82S443.674,162.604,443.674,117.389z
	 M361.674,179.389c-34.187,0-62-27.813-62-62s27.813-62,62-62s62,27.813,62,62S395.861,179.389,361.674,179.389z"/>
<path d="M361.674,79.389c-20.953,0-38,17.047-38,38c0,5.523,4.477,10,10,10s10-4.477,10-10c0-9.925,8.075-18,18-18s18,8.075,18,18
	s-8.075,18-18,18c-5.523,0-10,4.477-10,10s4.477,10,10,10c20.953,0,38-17.047,38-38S382.627,79.389,361.674,79.389z"/>
<path d="M179.57,310.069c1.86-1.859,2.93-4.439,2.93-7.069s-1.07-5.21-2.93-7.07s-4.44-2.93-7.07-2.93s-5.21,1.069-7.07,2.93
	c-1.86,1.86-2.93,4.44-2.93,7.07s1.07,5.21,2.93,7.069c1.86,1.86,4.44,2.931,7.07,2.931S177.71,311.93,179.57,310.069z"/>
<path d="M452.5,293h-147c0.322-2.289,0.5-4.624,0.5-7v-50h15.667c5.523,0,10-4.477,10-10s-4.477-10-10-10h-176.69
	c-54.037,0-98-43.962-98-98s43.962-98,98-98h222.046c54.037,0,98,43.962,98,98c0,43.236-27.722,80.865-68.982,93.636
	c-5.276,1.633-8.229,7.233-6.596,12.509c1.633,5.275,7.232,8.228,12.509,6.596c23.561-7.292,44.718-22.233,59.574-42.071
	c15.371-20.524,23.495-44.961,23.495-70.67c0-65.065-52.935-118-118-118H144.977c-65.065,0-118,52.935-118,118s52.935,118,118,118
	H206v50c0,27.57,22.43,50,50,50c17.629,0,33.144-9.179,42.05-23H426v179h-26.5v-87.417c0-25.502-20.748-46.25-46.25-46.25h-194.5
	c-25.502,0-46.25,20.748-46.25,46.25V492H86V313h46c5.523,0,10-4.478,10-10s-4.477-10-10-10H59.5C26.691,293,0,319.691,0,352.5V502
	c0,5.522,4.477,10,10,10h32c5.523,0,10-4.478,10-10v-90.489c2.459,0.311,4.958,0.489,7.5,0.489H66v90c0,5.522,4.477,10,10,10h360
	c5.523,0,10-4.478,10-10v-90h6.5c2.542,0,5.041-0.178,7.5-0.489V502c0,5.522,4.477,10,10,10h32c5.523,0,10-4.478,10-10V352.5
	C512,319.691,485.309,293,452.5,293z M256,316c-16.542,0-30-13.458-30-30v-50h60v50C286,302.542,272.542,316,256,316z M32,492H20
	v-95.054c3.631,3.23,7.659,6.019,12,8.292V492z M59.5,392C37.72,392,20,374.28,20,352.5S37.72,313,59.5,313H66v79H59.5z
	 M176.304,453.58c-5.514,0-10-4.486-10-10s4.486-10,10-10s10,4.486,10,10S181.818,453.58,176.304,453.58z M256,438
	c-5.514,0-10-4.486-10-10s4.486-10,10-10s10,4.486,10,10S261.514,438,256,438z M325.696,443.58c0-5.514,4.486-10,10-10
	s10,4.486,10,10s-4.486,10-10,10S325.696,449.094,325.696,443.58z M315.166,492v-13.735l7.613-7.613
	c3.914,1.875,8.295,2.928,12.918,2.928c16.542,0,30-13.458,30-30s-13.458-30-30-30s-30,13.458-30,30
	c0,4.629,1.055,9.016,2.936,12.934l-10.537,10.536c-1.875,1.875-2.929,4.419-2.929,7.071V492H266v-35.72
	c11.639-4.128,20-15.243,20-28.28c0-16.542-13.458-30-30-30s-30,13.458-30,30c0,13.036,8.361,24.152,20,28.28V492h-29.166v-17.878
	c0-2.652-1.054-5.196-2.929-7.071l-10.537-10.536c1.88-3.919,2.936-8.306,2.936-12.934c0-16.542-13.458-30-30-30s-30,13.458-30,30
	s13.458,30,30,30c4.622,0,9.003-1.052,12.918-2.928l7.613,7.613V492H132.5v-87.417c0-14.475,11.776-26.25,26.25-26.25h194.5
	c14.474,0,26.25,11.775,26.25,26.25V492H315.166z M446,392v-79h6.5c21.78,0,39.5,17.72,39.5,39.5S474.28,392,452.5,392H446z
	 M480,492v-86.762c4.341-2.273,8.369-5.062,12-8.292V492H480z"/>
<g>
</g>
<g>
</g>
<g>
</g>
<g>
</g>
<g>
</g>
<g>
</g>
<g>
</g>
<g>
</g>
<g>
</g>
<g>
</g>
<g>
</g>
<g>
</g>
<g>
</g>
<g>
</g>
<g>
</g>
</svg>
