<svg width="16" height="14" viewBox="0 0 16 14" fill="none" xmlns="http://www.w3.org/2000/svg">
<path d="M16.02 2.33986C15.4288 2.60236 14.795 2.77861 14.1288 2.85861C14.8088 2.45111 15.3313 1.80611 15.5763 1.03861C14.9413 1.41486 14.235 1.68861 13.4863 1.83611C12.8863 1.19611 12.0313 0.797363 11.085 0.797363C9.2675 0.797363 7.79375 2.26986 7.79375 4.08736C7.79375 4.34486 7.82375 4.59611 7.88 4.83736C5.145 4.69986 2.72125 3.38986 1.0975 1.39861C0.813751 1.88611 0.652501 2.45111 0.652501 3.05361C0.652501 4.19486 1.2325 5.20236 2.11625 5.79361C1.57625 5.77611 1.06875 5.62736 0.625001 5.38111C0.625001 5.39486 0.625001 5.40861 0.625001 5.42236C0.625001 7.01736 1.76 8.34611 3.26375 8.64986C2.98875 8.72486 2.6975 8.76486 2.3975 8.76486C2.185 8.76486 1.97875 8.74486 1.7775 8.70486C2.1975 10.0111 3.4125 10.9649 4.85125 10.9911C3.72625 11.8736 2.3075 12.3986 0.765001 12.3986C0.498751 12.3986 0.237501 12.3836 -0.0187492 12.3524C1.43625 13.2874 3.16625 13.8311 5.025 13.8311C11.0775 13.8311 14.3875 8.81736 14.3875 4.46986C14.3875 4.32736 14.3838 4.18361 14.3788 4.04361C15.0213 3.57986 15.5788 2.99986 16.02 2.33986Z" fill="white"/>
</svg>
